<svg xmlns="http://www.w3.org/2000/svg" xmlns:xlink="http://www.w3.org/1999/xlink" version="1.1" x="0px" y="0px" viewBox="0 0 100 125" width="28" height="28" enable-background="new 0 0 100 100" xml:space="preserve"><path d="M23.083,51.896h5.236l2.684,10.289l2.878-10.289h5.03l-5.366,15.937h-5.096L23.083,51.896z M42.827,51.896h5.117v9.824  c0,0.908,0.189,1.556,0.567,1.941c0.379,0.386,1.012,0.579,1.899,0.579c0.865,0,1.483-0.189,1.855-0.568  c0.371-0.378,0.557-1.029,0.557-1.952v-9.824h5.117v10.225c0,1.997-0.644,3.522-1.931,4.576c-1.287,1.053-3.154,1.579-5.599,1.579  c-2.46,0-4.339-0.528-5.637-1.585c-1.299-1.057-1.947-2.58-1.947-4.57V51.896z M63.164,67.833V51.896h12.734v3.819h-7.617v2.12  h6.439v3.657h-6.439v2.467h7.931v3.873H63.164z M85.248,2.083h-6.916H21.33H7.531c-2.205,0-4,1.795-4,4v34.854v37.89v15.09  c0,2.205,1.795,4,4,4h84.932c2.205,0,4-1.795,4-4v-15.09v-37.89V14.593L85.248,2.083z M59.998,21.166h4.416  c1.381,0,2.5-1.245,2.5-2.782V5.083h8.418v19.166c0,0.552-0.449,1-1,1H33.459V5.083h24.039v13.301  C57.498,19.921,58.617,21.166,59.998,21.166z M30.459,5.083v20.166H25.33c-0.553,0-1-0.448-1-1V5.083H30.459z M6.531,43.938h86.932  v31.89H6.531V43.938z M93.463,93.917c0,0.551-0.449,1-1,1H7.531c-0.551,0-1-0.449-1-1v-15.09h86.932V93.917z M6.531,40.938V6.083  c0-0.551,0.449-1,1-1H21.33v19.166c0,2.206,1.793,4,4,4h49.002c2.205,0,4-1.794,4-4V5.083h5.576l9.555,10.657v25.197H6.531z"/><text x="0" y="115" fill="#000000" font-size="5px" font-weight="bold" font-family="'Helvetica Neue', Helvetica, Arial-Unicode, Arial, Sans-serif">Created by Liliane Lass Erbe</text><text x="0" y="120" fill="#000000" font-size="5px" font-weight="bold" font-family="'Helvetica Neue', Helvetica, Arial-Unicode, Arial, Sans-serif">from the Noun Project</text></svg>